<svg xmlns="http://www.w3.org/2000/svg" width="512" height="512" viewBox="0 0 512 512" role="img" aria-labelledby="title desc">
  <title>HermesGo horse icon</title>
  <desc>Stylized horse-themed square icon inspired by luxury equestrian branding.</desc>
  <defs>
    <linearGradient id="bg" x1="64" y1="48" x2="448" y2="464" gradientUnits="userSpaceOnUse">
      <stop offset="0" stop-color="#f79a34"/>
      <stop offset="1" stop-color="#e06e18"/>
    </linearGradient>
    <linearGradient id="shine" x1="140" y1="84" x2="380" y2="420" gradientUnits="userSpaceOnUse">
      <stop offset="0" stop-color="#ffd3a1" stop-opacity=".22"/>
      <stop offset="1" stop-color="#ffd3a1" stop-opacity="0"/>
    </linearGradient>
  </defs>

  <rect x="32" y="32" width="448" height="448" rx="104" fill="url(#bg)"/>
  <path d="M114 132c74-48 185-42 256 19 11 10 20 22 27 35l-39 6c-12-18-31-34-57-47-31-15-73-19-118-11-32 6-59 18-82 36-2-14 1-27 13-38z" fill="url(#shine)"/>

  <path d="M178 354c-12-24-18-50-18-77 0-55 21-100 63-136 31-26 68-40 111-42 28-1 54 4 79 16-18 8-33 19-44 34-10 13-17 27-20 42 22 0 39 7 53 22-18 10-31 25-39 44-8 19-11 40-9 62 2 22 10 42 23 60-26 10-52 12-80 7-30-6-58-19-83-39-9 7-19 12-31 15-12 3-24 4-35 2z" fill="#111111"/>

  <circle cx="339" cy="344" r="45" fill="none" stroke="#111111" stroke-width="14"/>
  <circle cx="339" cy="344" r="8" fill="#111111"/>
  <path d="M339 299v90M294 344h90M307 312l64 64M371 312l-64 64" stroke="#111111" stroke-width="10" stroke-linecap="round"/>

  <circle cx="265" cy="225" r="10" fill="#f7ead8"/>
  <path d="M239 210c16-28 40-48 72-59" fill="none" stroke="#f7ead8" stroke-width="8" stroke-linecap="round" stroke-linejoin="round" opacity=".8"/>
  <path d="M206 267c18 8 38 10 60 6" fill="none" stroke="#f7ead8" stroke-width="6" stroke-linecap="round" opacity=".55"/>
</svg>
